<?xml version="1.0" encoding="UTF-8"?><svg id="Calque_2" xmlns="http://www.w3.org/2000/svg" viewBox="0 0 320 127.84"><g id="Calque_1-2"><path d="m77.85,35.66l-7.13-19.45-7.49,19.45h14.62Zm20.17,18.15c.82.72,1.61,1.1,2.38,1.15v1.44c-2.88-.14-6.53-.22-10.95-.22-4.9,0-8.55.07-10.95.22v-1.44c1.82-.09,3.12-.32,3.89-.68.77-.36,1.15-1,1.15-1.91s-.29-2.02-.86-3.46l-4.32-11.81h-15.7l-1.87,4.97c-1.34,3.46-2.02,6.12-2.02,8s.54,3.02,1.62,3.71c1.08.7,2.67,1.1,4.79,1.19v1.44c-3.27-.14-6.24-.22-8.93-.22-2.21,0-4.03.07-5.47.22v-1.44c2.35-.43,4.42-2.95,6.2-7.56L73.38,5.26c.53.05,1.37.07,2.52.07s1.97-.02,2.45-.07l17.51,45.1c.62,1.58,1.34,2.74,2.16,3.45"/><path d="m116.82,19.16h8.5v1.44h-8.5v29.1c0,1.44.26,2.46.76,3.06.5.6,1.31.9,2.41.9,2.07,0,3.7-1.44,4.9-4.32l1.22.65c-1.82,4.95-5.11,7.42-9.87,7.42-3.17,0-5.57-.82-7.2-2.45-1.01-1.01-1.69-2.27-2.05-3.78-.36-1.51-.54-3.59-.54-6.23v-24.35h-6.05v-1.44h6.05v-9.51c3.99,0,7.44-.77,10.37-2.31v11.81Z"/><path d="m143.18,22.87c-1.13,2.14-1.84,5.44-2.13,9.91h11.31c.1-3.79-.28-6.93-1.12-9.4-.84-2.47-2.1-3.71-3.78-3.71s-3.16,1.07-4.29,3.21m16.82,22.87l1.3.43c-.96,3.12-2.68,5.78-5.15,7.96-2.47,2.19-5.56,3.28-9.26,3.28-5.09,0-9.14-1.62-12.14-4.86-3-3.24-4.5-8.03-4.5-14.37s1.61-11.44,4.83-14.87c3.22-3.43,7.49-5.15,12.82-5.15,9.03,0,13.54,5.33,13.54,15.99h-20.24c-.05.72-.07,1.85-.07,3.39,0,3.17.44,5.81,1.33,7.92.89,2.12,2.04,3.65,3.46,4.61,1.42.96,2.94,1.44,4.57,1.44,3.94,0,7.11-1.92,9.51-5.76"/><path d="m180.67,49.71c0,1.97.34,3.33,1.01,4.07.68.75,1.88,1.12,3.6,1.12v1.51c-4.99-.19-8.21-.29-9.65-.29-1.63,0-4.95.1-9.94.29v-1.51c1.68,0,2.87-.37,3.57-1.12.7-.74,1.05-2.1,1.05-4.07V8.64c0-2.21-.35-3.82-1.05-4.83-.7-1.01-1.89-1.51-3.57-1.51V.8c1.54.14,3.03.21,4.47.21,4.18,0,7.69-.33,10.52-1.01v49.71Z"/><path d="m204.92,2.06c1.18.98,1.76,2.34,1.76,4.07s-.59,3.09-1.76,4.07c-1.18.99-2.77,1.48-4.79,1.48s-3.62-.49-4.79-1.48c-1.18-.98-1.76-2.34-1.76-4.07s.59-3.08,1.76-4.07c1.17-.98,2.77-1.48,4.79-1.48s3.61.5,4.79,1.48m.83,47.65c0,1.97.35,3.33,1.05,4.07.69.75,1.89,1.12,3.57,1.12v1.51c-4.8-.19-8-.29-9.58-.29-1.49,0-4.83.1-10.01.29v-1.51c1.73,0,2.93-.37,3.6-1.12.67-.74,1.01-2.1,1.01-4.07v-22.69c0-2.21-.34-3.82-1.01-4.83-.68-1.01-1.88-1.51-3.6-1.51v-1.52c1.54.14,3.03.22,4.46.22,4.27,0,7.78-.33,10.52-1.01v31.33Z"/><path d="m227.58,22.87c-1.13,2.14-1.84,5.44-2.12,9.91h11.31c.1-3.79-.28-6.93-1.11-9.4-.84-2.47-2.1-3.71-3.78-3.71s-3.16,1.07-4.29,3.21m16.82,22.87l1.3.43c-.96,3.12-2.68,5.78-5.15,7.96-2.47,2.19-5.56,3.28-9.26,3.28-5.09,0-9.14-1.62-12.14-4.86-3-3.24-4.5-8.03-4.5-14.37s1.61-11.44,4.82-14.87c3.22-3.43,7.49-5.15,12.83-5.15,9.03,0,13.54,5.33,13.54,15.99h-20.24c-.05.72-.07,1.85-.07,3.39,0,3.17.44,5.81,1.33,7.92.89,2.12,2.04,3.65,3.46,4.61,1.41.96,2.94,1.44,4.57,1.44,3.94,0,7.1-1.92,9.51-5.76"/><path d="m279.91,20.1c1.1,1.3,1.66,2.86,1.66,4.68s-.52,3.23-1.55,4.36c-1.03,1.13-2.39,1.7-4.07,1.7s-2.93-.42-3.89-1.26c-.96-.84-1.44-1.96-1.44-3.35,0-2.31,1.06-4.18,3.17-5.62-.19-.05-.48-.07-.86-.07-.48,0-.86.05-1.16.14-1.82.29-3.37,1.39-4.64,3.31-1.28,1.92-1.91,3.89-1.91,5.91v19.09c0,2.21.54,3.75,1.62,4.61,1.08.86,2.8,1.29,5.15,1.29v1.51c-.67,0-1.22-.02-1.65-.07-4.9-.14-8.16-.22-9.8-.22-1.3,0-4.25.07-8.86.22-.39.05-.86.07-1.44.07v-1.51c1.73,0,2.93-.37,3.6-1.12.67-.74,1.01-2.1,1.01-4.07v-22.69c0-2.21-.34-3.82-1.01-4.83-.67-1.01-1.88-1.51-3.6-1.51v-1.51c1.54.14,3.03.22,4.47.22,4.27,0,7.78-.34,10.52-1.01v6.7c.91-2.07,2.23-3.73,3.96-5.01,1.73-1.27,3.67-1.91,5.83-1.91s3.79.65,4.9,1.95"/><path d="m39.98,126.83c-3.27-.14-8.76-.22-16.5-.22-10.47,0-18.3.07-23.48.22v-1.44c1.58-.1,2.75-.29,3.49-.58s1.25-.84,1.51-1.66c.26-.82.4-2.13.4-3.96v-35.73c0-1.82-.14-3.15-.4-3.96-.26-.82-.77-1.37-1.51-1.66s-1.91-.48-3.49-.58v-1.44c5.19.14,13.01.22,23.48.22,7.06,0,12.08-.07,15.06-.22-.34,3.99-.5,7.54-.5,10.66,0,2.12.07,3.75.22,4.9h-1.66c-.72-5.14-2.02-8.74-3.89-10.81-1.87-2.07-4.51-3.1-7.93-3.1h-2.95c-1.49,0-2.57.12-3.24.36-.68.24-1.13.71-1.37,1.4-.24.7-.36,1.81-.36,3.35v17.87h2.31c2.55,0,4.48-.94,5.8-2.81,1.32-1.87,2.25-4.11,2.77-6.7h1.66c-.14,2.02-.22,4.28-.22,6.77v3.46c0,2.45.14,5.86.43,10.23h-1.66c-1.01-6.34-3.94-9.51-8.79-9.51h-2.31v18.15c0,1.54.12,2.65.36,3.35.24.7.7,1.16,1.37,1.4.67.24,1.75.36,3.24.36h3.53c3.41,0,6.16-1.16,8.25-3.49,2.09-2.33,3.57-6.28,4.43-11.85h1.66c-.14,1.58-.22,3.6-.22,6.05,0,4.42.17,8.07.51,10.95"/><path d="m81.49,91.39c.82.91,1.39,2.09,1.73,3.53.33,1.44.5,3.39.5,5.83v19.38c0,1.97.35,3.33,1.04,4.07.7.74,1.88,1.12,3.57,1.12v1.51c-4.8-.19-7.97-.29-9.51-.29-1.44,0-4.56.1-9.36.29v-1.51c1.44,0,2.45-.37,3.03-1.12s.86-2.1.86-4.07v-22.4c0-1.97-.32-3.45-.97-4.46-.65-1.01-1.81-1.52-3.49-1.52-1.97,0-3.65.81-5.04,2.42-1.39,1.61-2.09,3.59-2.09,5.94v20.03c0,1.97.29,3.33.86,4.07s1.58,1.12,3.03,1.12v1.51c-4.42-.19-7.4-.29-8.93-.29-1.44,0-4.75.1-9.94.29v-1.51c1.73,0,2.93-.37,3.6-1.12.67-.74,1.01-2.1,1.01-4.07v-22.69c0-2.21-.34-3.82-1.01-4.83-.67-1.01-1.87-1.51-3.6-1.51v-1.51c1.54.14,3.03.22,4.47.22,4.27,0,7.78-.34,10.52-1.01v6.48c2.16-4.47,6.1-6.7,11.81-6.7,3.65,0,6.29.94,7.92,2.81"/><path d="m106.21,89.58h8.5v1.44h-8.5v29.1c0,1.44.25,2.46.76,3.06s1.31.9,2.41.9c2.07,0,3.7-1.44,4.9-4.32l1.22.65c-1.82,4.94-5.11,7.42-9.87,7.42-3.17,0-5.57-.82-7.2-2.45-1.01-1.01-1.69-2.27-2.05-3.78-.36-1.51-.54-3.59-.54-6.23v-24.35h-6.05v-1.44h6.05v-9.51c3.99,0,7.44-.77,10.37-2.3v11.81Z"/><path d="m149.67,90.52c1.1,1.3,1.66,2.86,1.66,4.68s-.52,3.23-1.55,4.36c-1.03,1.13-2.39,1.69-4.07,1.69s-2.93-.42-3.89-1.26c-.96-.84-1.44-1.95-1.44-3.35,0-2.31,1.06-4.18,3.17-5.62-.19-.05-.48-.07-.86-.07-.48,0-.86.05-1.15.14-1.82.29-3.37,1.4-4.65,3.32-1.27,1.92-1.91,3.89-1.91,5.91v19.09c0,2.21.54,3.75,1.62,4.61,1.08.86,2.8,1.3,5.15,1.3v1.51c-.67,0-1.22-.02-1.66-.08-4.9-.14-8.16-.21-9.8-.21-1.3,0-4.25.07-8.86.21-.38.05-.86.08-1.44.08v-1.51c1.73,0,2.93-.37,3.6-1.12.67-.74,1.01-2.1,1.01-4.07v-22.69c0-2.21-.34-3.82-1.01-4.83-.67-1.01-1.87-1.51-3.6-1.51v-1.51c1.54.14,3.03.22,4.47.22,4.27,0,7.78-.34,10.52-1.01v6.7c.91-2.06,2.23-3.73,3.96-5.01,1.73-1.27,3.67-1.91,5.84-1.91s3.79.65,4.9,1.95"/><path d="m169.03,93.3c-1.13,2.14-1.84,5.44-2.13,9.91h11.31c.09-3.79-.28-6.93-1.12-9.4-.84-2.47-2.1-3.71-3.78-3.71s-3.15,1.07-4.28,3.21m16.82,22.87l1.3.43c-.96,3.12-2.68,5.78-5.15,7.96-2.47,2.19-5.56,3.28-9.26,3.28-5.09,0-9.14-1.62-12.14-4.86-3-3.24-4.5-8.03-4.5-14.37s1.61-11.44,4.83-14.88c3.22-3.43,7.49-5.15,12.82-5.15,9.03,0,13.54,5.33,13.54,15.99h-20.24c-.05.72-.07,1.85-.07,3.39,0,3.17.44,5.81,1.33,7.92.89,2.12,2.04,3.65,3.46,4.61,1.41.96,2.94,1.44,4.57,1.44,3.94,0,7.11-1.92,9.51-5.76"/><path d="m206.75,120.13c0,1.97.33,3.33,1.01,4.07.67.74,1.87,1.12,3.6,1.12v1.51c-4.99-.19-8.21-.29-9.65-.29-1.64,0-4.95.1-9.94.29v-1.51c1.68,0,2.87-.37,3.56-1.12.7-.74,1.05-2.1,1.05-4.07v-41.06c0-2.21-.35-3.81-1.05-4.82-.69-1.01-1.88-1.52-3.56-1.52v-1.51c1.54.14,3.03.22,4.47.22,4.18,0,7.68-.33,10.52-1.01v49.71Z"/><path d="m236.09,119.77v-14.77c-.58.96-1.8,2.02-3.68,3.17-1.87,1.2-3.29,2.4-4.25,3.6-.96,1.2-1.44,2.93-1.44,5.19,0,1.97.41,3.42,1.23,4.36.81.94,1.89,1.4,3.24,1.4,1.88,0,3.51-.98,4.9-2.95m-17.33,5.19c-1.51-1.58-2.27-3.67-2.27-6.27,0-2.16.57-3.95,1.69-5.37,1.13-1.42,2.5-2.51,4.11-3.28,1.61-.77,3.66-1.58,6.16-2.45,2.64-.91,4.57-1.74,5.8-2.49,1.22-.74,1.84-1.76,1.84-3.06v-5.62c0-2.02-.47-3.59-1.41-4.72-.94-1.13-2.39-1.69-4.36-1.69-2.31,0-4.06.58-5.26,1.73,1.34.48,2.39,1.2,3.13,2.16.74.96,1.12,2.09,1.12,3.39,0,1.63-.56,2.93-1.66,3.89-1.1.96-2.45,1.44-4.03,1.44-1.68,0-2.98-.53-3.89-1.58-.91-1.05-1.37-2.38-1.37-3.96,0-1.34.33-2.49.97-3.42.65-.94,1.64-1.81,2.99-2.63,1.3-.77,2.89-1.37,4.79-1.8,1.9-.43,3.98-.65,6.23-.65s4.39.24,6.13.72c1.73.48,3.17,1.3,4.32,2.45,1.05,1.06,1.76,2.36,2.12,3.89.36,1.54.54,3.63.54,6.27v19.59c0,1.15.11,1.97.32,2.45.21.48.63.72,1.26.72.72,0,1.58-.41,2.59-1.22l.72,1.22c-2.16,1.78-4.8,2.67-7.92,2.67-2.64,0-4.49-.53-5.55-1.58-1.05-1.06-1.61-2.47-1.66-4.25-2.4,3.89-5.93,5.84-10.59,5.84-3.07,0-5.36-.79-6.88-2.38"/><path d="m277.8,89.15c1.58.38,2.91.91,3.96,1.58,1.25.77,2.22,1.74,2.92,2.92.69,1.18,1.04,2.46,1.04,3.85,0,1.68-.53,3.06-1.58,4.14s-2.43,1.62-4.11,1.62-3.03-.48-4.04-1.44-1.51-2.26-1.51-3.89c0-1.44.46-2.69,1.37-3.75.91-1.06,2.04-1.78,3.38-2.16-.38-.53-.97-.95-1.76-1.26-.79-.31-1.64-.47-2.56-.47-2.88,0-5.13,1.57-6.74,4.72-1.61,3.15-2.42,7.26-2.42,12.35s.92,8.84,2.74,11.1c1.83,2.26,4.11,3.39,6.85,3.39,1.63,0,3.27-.43,4.93-1.3,1.66-.86,3.16-2.38,4.5-4.54l1.22.43c-.96,3.12-2.64,5.8-5.04,8.03-2.4,2.23-5.5,3.35-9.29,3.35-4.95,0-8.98-1.63-12.1-4.9-3.12-3.27-4.68-8.12-4.68-14.55,0-4.23.77-7.83,2.31-10.81,1.53-2.98,3.65-5.23,6.34-6.74,2.69-1.51,5.76-2.27,9.22-2.27,1.78,0,3.46.19,5.05.58"/><path d="m310.42,89.26c1.54.46,2.71.97,3.53,1.55.48.34.91.5,1.3.5.43,0,.8-.23,1.11-.68.31-.46.52-1.12.62-1.98h1.51c-.19,2.45-.29,6.68-.29,12.68h-1.51c-.43-3.17-1.38-5.82-2.85-7.96-1.47-2.13-3.59-3.2-6.38-3.2-1.44,0-2.63.41-3.57,1.22-.93.81-1.4,1.94-1.4,3.39,0,1.63.55,3.04,1.65,4.21,1.11,1.18,2.84,2.61,5.19,4.29l2.09,1.51c2.93,2.21,5.09,4.18,6.48,5.91,1.4,1.73,2.09,3.89,2.09,6.48,0,2.11-.62,3.99-1.84,5.62-1.22,1.63-2.87,2.88-4.93,3.75-2.07.86-4.35,1.3-6.85,1.3-2.64,0-4.9-.5-6.77-1.51-1.53-.77-2.64-1.27-3.31-1.51-.48-.14-.9.01-1.26.47-.36.46-.64,1.14-.83,2.05h-1.51c.19-2.74.29-7.54.29-14.41h1.51c.96,8.84,4.2,13.25,9.73,13.25,1.39,0,2.58-.42,3.57-1.26.98-.84,1.48-2.13,1.48-3.85,0-1.35-.3-2.55-.9-3.6-.6-1.05-1.36-1.99-2.27-2.81-.92-.82-2.28-1.95-4.11-3.39-2.16-1.73-3.81-3.12-4.93-4.18-1.13-1.05-2.09-2.3-2.88-3.75-.8-1.44-1.19-3.05-1.19-4.82,0-3.08,1.2-5.5,3.6-7.28,2.4-1.77,5.33-2.67,8.79-2.67,1.83,0,3.51.23,5.04.69"/></g></svg>